<svg width="334" height="200" viewBox="0 0 334 200" fill="none" xmlns="http://www.w3.org/2000/svg">
<path d="M79.6813 83.1418L77.096 90.7401C76.6073 92.1667 77.3718 93.7273 78.8064 94.2081C79.098 94.3106 79.3975 94.3579 79.6891 94.3579C80.832 94.3579 81.8882 93.6406 82.2823 92.4977L84.7809 85.1438C85.7267 85.4591 86.6962 85.7508 87.6657 86.003C90.9998 86.8858 95.193 87.6267 99.8591 87.6267C99.9616 87.6267 100.064 87.6267 100.167 87.6267L99.1261 90.7558C98.6532 92.1903 99.4256 93.7352 100.86 94.216C101.144 94.3106 101.436 94.3579 101.719 94.3579C102.87 94.3579 103.934 93.6327 104.312 92.482L106.07 87.1774C109.207 86.7124 112.462 85.869 115.765 84.4818C117.16 83.8985 117.814 82.2906 117.223 80.8955C116.64 79.5003 115.032 78.8461 113.637 79.4373C111.777 80.2176 109.901 80.8088 108.041 81.2344L111.304 71.3898C113.519 71.3425 115.804 71.1454 118.169 70.7513C119.659 70.4991 120.668 69.0882 120.415 67.5986C120.163 66.1089 118.744 65.1 117.263 65.3522C115.852 65.5886 114.48 65.7384 113.148 65.833L114.993 60.2604C115.465 58.8259 114.693 57.281 113.258 56.8002C111.824 56.3273 110.279 57.0998 109.798 58.5343L107.379 65.8251C101.593 65.3995 96.659 63.7443 92.7338 61.6949L96.8482 49.5961C97.3369 48.1695 96.5723 46.6088 95.1378 46.128C93.7112 45.6393 92.1506 46.4039 91.6698 47.8384L87.9731 58.7156C85.1514 56.5953 83.2991 54.4829 82.5739 53.1036C81.8724 51.7637 80.2172 51.2513 78.8773 51.9607C77.5374 52.6622 77.025 54.3174 77.7344 55.6573C79.0665 58.1953 81.9749 61.3324 86.1366 64.1384L81.4626 77.8924C77.7896 76.1426 75.0309 74.1642 73.6673 72.6194C72.6663 71.4844 70.9401 71.3819 69.8051 72.3829C68.6701 73.3839 68.5677 75.1101 69.5687 76.2451C71.7677 78.7358 75.4092 81.1792 79.6813 83.1418ZM90.9683 66.9443C95.1221 68.9858 100.064 70.5701 105.629 71.1612L102.003 82.0935C96.4147 82.4088 91.0944 81.4393 86.5465 79.9339L90.9604 66.9365L90.9683 66.9443Z" fill="#F4F3E9"/>
<path d="M184.89 29.97C179.538 29.4183 175.148 30.5138 174.959 30.5611C174.06 30.7897 173.343 31.4518 173.043 32.3346L154.749 86.0424C154.481 86.8306 154.584 87.7055 155.041 88.407C155.49 89.1085 156.239 89.5656 157.066 89.6523C157.547 89.6996 158.162 89.7312 158.903 89.7312C164.499 89.7312 177.024 88.0444 187.869 79.8156C201.812 69.238 207.819 51.3696 201.253 39.9959C197.911 34.1947 192.252 30.7345 184.89 29.9858V29.97ZM184.567 75.449C176.101 81.8728 166.509 83.7566 161.173 84.1586L177.709 35.5977C179.199 35.3691 181.706 35.1248 184.48 35.4243C190.021 36.0312 194.072 38.4825 196.508 42.7152C201.568 51.4799 195.98 66.7788 184.559 75.449H184.567Z" fill="#F4F3E9"/>
<path d="M118.468 47.539C119.863 47.8385 121.282 47.9883 122.693 47.9883C126.989 47.9883 131.269 46.6247 134.871 44.0394C139.671 40.595 142.792 35.385 143.43 29.7415C143.604 28.2439 142.524 26.8882 141.019 26.7148C139.521 26.5493 138.165 27.6212 137.992 29.1267C137.527 33.2332 135.225 37.056 131.678 39.6018C128.139 42.1398 123.741 43.0857 119.619 42.2029C113.881 40.9654 110.846 37.2767 109.317 34.4076C106.653 29.4104 106.393 22.8132 108.639 17.1934C111.635 9.69761 120.257 2.9191 135.493 6.37929C141.31 7.70347 151.013 10.8878 160.4 13.9696C160.495 14.0012 160.582 14.0327 160.676 14.0563L132.27 93.5619C131.765 94.9885 132.506 96.5492 133.925 97.0615C134.232 97.1718 134.54 97.2191 134.847 97.2191C135.974 97.2191 137.022 96.5176 137.424 95.4063L165.886 15.7589C171.128 17.4692 175.857 18.9589 179.223 19.8496C184.874 21.3393 193.418 22.8053 202.049 21.3157C211.791 19.6368 219.082 14.6711 223.716 6.5527C224.465 5.24429 224.008 3.57331 222.7 2.81664C221.391 2.05997 219.72 2.525 218.963 3.83341C215.85 9.27986 205.887 21.2132 180.618 14.5529C176.984 13.5913 171.593 11.8652 165.681 9.92619C165.516 9.82372 165.342 9.73702 165.153 9.66608C164.925 9.58726 164.696 9.54785 164.467 9.5242C163.687 9.27198 162.907 9.01188 162.111 8.75177C152.605 5.63051 142.776 2.40677 136.715 1.02743C121.392 -2.45641 108.379 3.08462 103.563 15.1441C100.694 22.3245 101.041 30.4824 104.494 36.9614C107.426 42.4709 112.391 46.2227 118.476 47.5311L118.468 47.539Z" fill="#F4F3E9"/>
<path d="M216.158 48.4612L207.795 73.8727C207.322 75.3072 208.102 76.8521 209.537 77.325C209.821 77.4196 210.112 77.459 210.396 77.459C211.547 77.459 212.619 76.726 212.997 75.5752L220.745 52.0396C223.023 52.6229 227.334 54.3569 232.978 59.4565C241.372 67.039 250.027 74.8579 260.912 74.8579C262.165 74.8579 263.442 74.7555 264.758 74.5348C272.892 73.1791 279.237 66.6764 280.916 57.9669C282.28 50.8967 280.049 44.4335 275.225 41.5014C273.933 40.7132 272.254 41.1231 271.466 42.4157C270.677 43.7083 271.087 45.3872 272.38 46.1754C275.225 47.9094 276.471 52.1342 275.548 56.9343C274.603 61.8211 270.977 67.9533 263.859 69.1435C253.723 70.8302 245.431 63.3345 236.643 55.4052C233.285 52.3785 230.282 50.345 227.744 48.9893C250.838 39.6255 266.878 17.6899 267.619 16.6574C268.502 15.4357 268.226 13.7253 267.004 12.8346C265.783 11.9518 264.072 12.2277 263.182 13.4494C263 13.7016 246.133 36.7801 223.102 44.8828L230.629 22.0093C231.102 20.5747 230.322 19.0299 228.887 18.5569C227.453 18.084 225.908 18.8643 225.435 20.2989L216.355 47.8858C216.268 48.0671 216.213 48.2563 216.166 48.4533L216.158 48.4612Z" fill="#F4F3E9"/>
<path d="M82.747 110.981C98.7632 114.11 118.153 111.887 124.529 96.2416C125.097 94.8387 124.427 93.2465 123.032 92.679C121.637 92.1115 120.037 92.7815 119.469 94.1766C114.346 106.748 97.6834 108.325 83.8032 105.613C76.4966 104.187 66.5811 100.679 56.9809 97.2978C47.2781 93.8692 38.1193 90.6376 32.1999 89.7548C20.9996 88.0838 6.20513 91.3863 1.38136 106.197C-0.904419 113.227 -0.329035 121.125 2.92622 127.32C5.62186 132.444 9.9806 136.124 15.2064 137.669C17.4291 138.331 19.636 138.655 21.7878 138.655C25.9022 138.655 29.7959 137.457 33.13 135.108C38.0483 131.648 41.0671 126.067 41.4139 119.801C41.5006 118.295 40.342 117.003 38.8365 116.916C37.3311 116.845 36.0384 117.988 35.9517 119.493C35.6995 124.073 33.5241 128.132 29.9772 130.631C26.2963 133.224 21.6065 133.854 16.767 132.42C11.8959 130.978 9.1924 127.462 7.77364 124.767C5.18835 119.848 4.74696 113.535 6.59134 107.875C9.0584 100.301 16.8616 92.9864 31.3959 95.1539C36.7872 95.9579 45.7175 99.1107 55.1601 102.445C56.7129 102.997 58.2814 103.548 59.842 104.092L27.4786 196.359C26.982 197.785 27.7308 199.346 29.1575 199.842C29.457 199.945 29.7644 200 30.0639 200C31.191 200 32.2472 199.299 32.6492 198.171L65.0205 105.881C71.46 108.065 77.6395 109.98 82.7549 110.981H82.747Z" fill="#F4F3E9"/>
<path d="M157.397 100.624C153.046 100.419 148.932 102.508 146.654 106.031C144.187 109.846 142.39 116.27 147.805 125.2C148.199 125.846 148.577 126.469 148.948 127.068C152.51 132.869 154.867 136.7 154.292 142.257C154.032 144.771 152.668 147.096 150.634 148.468C149.295 149.374 147.04 150.265 143.935 149.358C141.736 148.72 140.214 147.278 139.411 145.055C138.559 142.69 138.685 139.719 139.647 136.96C140.214 135.951 140.743 134.895 141.223 133.792C141.223 133.784 141.223 133.768 141.231 133.76C141.263 133.721 141.286 133.673 141.31 133.634C142.161 132.389 141.838 130.686 140.585 129.835C139.34 128.984 137.637 129.307 136.786 130.56C135.903 131.853 135.194 133.256 134.642 134.706C133.034 137.472 131.032 139.798 128.399 141.989C123.978 145.662 116.529 147.356 112.202 143.683C111.201 142.832 110.46 141.476 110.05 139.798C110.626 139.963 111.225 140.089 111.839 140.184C117.073 140.964 122.866 138.915 126.602 134.974C129.763 131.64 131.371 127.218 130.906 123.151C130.551 120.101 129.077 117.57 126.744 116.033C124.498 114.552 121.645 114.11 118.72 114.796C114.574 115.758 110.602 118.871 108.088 123.127C106.953 125.05 105.944 127.407 105.25 129.945C104.84 129.945 104.422 130.04 104.036 130.237C102.688 130.915 102.137 132.554 102.814 133.91C103.216 134.714 103.705 135.455 104.265 136.125C104.241 136.881 104.249 137.638 104.304 138.387C103.879 140.01 103.248 142.052 102.365 144.038C100.166 149.004 97.5493 151.274 94.6014 150.809C93.159 150.58 92.2447 149.973 91.6299 148.854C90.1166 146.095 90.692 140.806 92.1817 135.447C92.2369 135.258 92.292 135.092 92.3472 134.942C92.3787 134.856 92.3866 134.769 92.4103 134.674C93.0881 132.365 93.9236 130.071 94.83 127.975C95.4291 126.587 94.7906 124.979 93.4034 124.38C92.0162 123.781 90.4082 124.42 89.8092 125.807C88.2643 129.378 87.216 132.53 86.5145 135.289C85.3165 139.159 82.9755 146.442 79.539 151.211C76.268 155.759 72.5713 158.013 69.655 157.233C68.4727 156.917 67.7318 156.334 67.2352 155.341C66.0371 152.937 65.7928 147.167 71.4205 133.35C71.988 131.947 71.3181 130.355 69.923 129.787C68.52 129.212 66.9278 129.89 66.3603 131.285C63.0341 139.443 58.9985 151.069 62.3405 157.784C63.5307 160.18 65.58 161.82 68.252 162.529C69.1111 162.758 69.986 162.868 70.8609 162.868C75.3615 162.868 80.0277 159.905 83.9765 154.411C84.8514 153.197 85.6475 151.865 86.3805 150.493C86.5461 150.919 86.7116 151.25 86.8456 151.487C88.2722 154.08 90.6605 155.711 93.7502 156.208C94.2941 156.295 94.8616 156.342 95.4527 156.342C99.1415 156.342 103.721 154.348 107.291 146.442C107.709 146.947 108.166 147.419 108.687 147.861C111.429 150.186 114.834 151.187 118.326 151.187C123.213 151.187 128.265 149.232 131.915 146.206C132.53 145.693 133.105 145.173 133.672 144.645C133.822 145.425 134.019 146.19 134.279 146.923C135.667 150.777 138.559 153.512 142.429 154.631C143.785 155.026 145.141 155.215 146.465 155.215C149.066 155.215 151.549 154.474 153.708 153.016C157.066 150.746 159.328 146.939 159.746 142.832C160.503 135.431 157.468 130.489 153.614 124.223C153.243 123.624 152.865 123.009 152.487 122.378C149.318 117.153 148.9 112.66 151.249 109.018C152.495 107.087 154.702 106.008 157.153 106.11C159.423 106.205 161.346 107.347 162.308 109.152C163.711 111.809 163.12 114.292 162.639 115.529C161.898 117.436 160.479 118.973 158.926 119.533C157.508 120.045 156.767 121.614 157.279 123.033C157.791 124.459 159.36 125.192 160.779 124.68C163.821 123.584 166.43 120.904 167.738 117.507C169.126 113.921 168.913 109.941 167.139 106.599C165.263 103.052 161.622 100.829 157.389 100.648L157.397 100.624ZM112.809 125.91C114.574 122.914 117.246 120.755 119.966 120.124C120.998 119.888 122.488 119.777 123.749 120.605C124.979 121.409 125.373 122.773 125.483 123.774C125.767 126.217 124.679 129.062 122.653 131.198C120.147 133.839 116.135 135.273 112.667 134.761C111.831 134.635 110.846 134.375 109.932 133.823C110.318 131.293 111.248 128.566 112.817 125.902L112.809 125.91Z" fill="#F4F3E9"/>
<path d="M331.723 96.9825C330.265 96.6121 328.768 97.4948 328.397 98.9609C325.449 110.563 317.496 118.54 304.767 122.654C296.168 125.436 285.07 125.444 273.948 125.113C275.202 119.359 276.329 112.683 277.432 106.149C278.756 98.3146 280.002 90.9213 281.271 86.4601C284.045 76.7022 288.294 74.2982 290.343 73.1395C291.659 72.3907 292.116 70.7276 291.375 69.4113C290.635 68.095 288.956 67.6379 287.647 68.3788C285.18 69.7739 279.403 73.0528 276.013 84.9625C275.722 86.0029 275.43 87.1773 275.139 88.4542C275.139 88.47 275.131 88.4857 275.123 88.5015C271.158 106.102 267.927 111.572 261.794 111.044C259.548 110.847 257.144 108.971 257.144 104.281C257.144 100.388 258.697 94.3578 261.637 86.8305C262.188 85.4196 261.495 83.8354 260.084 83.2836C258.681 82.7319 257.089 83.4255 256.537 84.8364C253.305 93.1046 251.666 99.6466 251.666 104.281C251.666 104.691 251.69 105.077 251.713 105.464C250.626 109.901 248.474 115.269 244.399 115.939C242.972 116.175 241.719 115.876 240.765 115.072C239.536 114.031 238.85 112.218 238.826 109.964C238.826 109.01 238.905 107.938 239.055 106.796C239.094 106.677 239.118 106.559 239.142 106.433C239.205 106.078 239.244 105.724 239.276 105.353C240.001 101.05 241.49 96.218 242.657 93.6484C243.28 92.2691 242.673 90.6533 241.301 90.0227C239.922 89.4 238.306 90.007 237.676 91.3784C237.203 92.4188 236.682 93.7667 236.178 95.2958C234.751 93.6721 232.915 92.5528 230.779 92.0563C224.528 90.6218 216.071 93.5933 212.8 106.717C212.028 109.814 211.76 112.739 211.972 115.371C211.957 115.426 211.941 115.474 211.925 115.529C211.909 115.639 209.899 126.217 203.822 126.217C203.759 126.217 203.704 126.217 203.641 126.217C202.104 126.162 201.009 125.689 200.291 124.751C198.928 122.993 198.675 119.43 199.606 115.221C201.347 107.347 203.625 100.151 208.63 86.7044C209.159 85.2857 208.433 83.7171 207.022 83.189C205.612 82.6688 204.027 83.3861 203.507 84.797C200.283 93.4593 198.171 99.5836 196.595 104.983C195.113 103.296 192.914 102.011 189.658 101.625C181.532 100.656 174.186 107.6 171.798 118.485C170.348 125.098 170.955 130.512 173.556 134.146C175.345 136.645 177.97 138.15 181.146 138.513C181.619 138.568 182.092 138.591 182.557 138.591C186.86 138.591 190.723 136.314 193.781 131.931C194.577 130.788 195.31 129.496 195.972 128.101C197.706 130.331 200.291 131.569 203.46 131.679C203.602 131.679 203.736 131.679 203.87 131.679C209.576 131.679 212.989 127.525 214.952 123.545C216.67 125.689 219.019 127.029 221.817 127.438C222.384 127.525 222.952 127.565 223.519 127.565C226.113 127.565 228.619 126.69 230.858 124.987C233.002 123.356 234.83 120.999 236.217 118.185C236.541 118.555 236.879 118.902 237.258 119.218C238.992 120.676 241.159 121.44 243.492 121.44C244.091 121.44 244.69 121.393 245.305 121.291C248.269 120.802 251.989 118.902 254.772 113.196C256.577 115.166 258.957 116.238 261.329 116.443C261.786 116.483 262.236 116.506 262.677 116.506C265.909 116.506 268.494 115.418 270.63 113.519C269.929 117.484 269.188 121.393 268.407 124.885C263.497 124.719 258.847 124.569 254.385 124.632C236.273 124.9 228.201 134.627 228.233 144.14C228.249 148.641 230.125 152.708 233.506 155.577C236.533 158.139 240.529 159.51 244.817 159.51C245.912 159.51 247.031 159.424 248.159 159.234C258.24 157.595 266.256 149.169 271.332 134.855C271.797 133.555 272.238 132.089 272.664 130.505C284.636 130.883 296.719 130.977 306.477 127.825C320.901 123.159 330.328 113.629 333.725 100.269C334.096 98.8032 333.213 97.3136 331.747 96.9431L331.723 96.9825ZM181.753 133.106C180.113 132.916 178.884 132.231 178.001 130.993C176.354 128.684 176.046 124.672 177.134 119.691C178.805 112.092 183.266 107.04 188.169 107.04C188.445 107.04 188.728 107.056 189.012 107.087C191.661 107.402 194.608 108.679 193.907 115.868C193.907 115.915 193.907 115.954 193.907 116.002C193.867 116.262 193.828 116.522 193.797 116.782C193.797 116.782 193.797 116.79 193.797 116.798C192.386 125.145 188.011 133.799 181.761 133.106H181.753ZM227.531 120.676C225.987 121.85 224.323 122.323 222.597 122.071C220.997 121.834 219.783 121.078 218.893 119.746C217.182 117.192 216.891 112.936 218.105 108.072C219.815 101.207 223.456 97.219 227.831 97.219C228.391 97.219 228.966 97.282 229.557 97.416C232.986 98.2042 233.979 102.224 233.837 104.754C233.616 106.11 233.467 107.426 233.403 108.656C232.749 113.811 230.511 118.414 227.539 120.676H227.531ZM266.161 133.066C263.119 141.658 257.365 152.235 247.268 153.875C243.335 154.513 239.599 153.63 237.029 151.447C234.885 149.626 233.695 147.041 233.687 144.164C233.664 137.843 239.086 130.371 254.448 130.15C255.15 130.142 255.867 130.134 256.584 130.134C259.918 130.134 263.394 130.237 267.02 130.363C266.736 131.34 266.453 132.254 266.161 133.074V133.066Z" fill="#F4F3E9"/>
<path d="M289.113 101.53C288.94 100.388 288.869 98.2121 290.39 96.4308C291.368 95.2801 291.234 93.5539 290.083 92.5765C288.932 91.5992 287.206 91.7332 286.229 92.8839C284.053 95.4298 283.163 98.7954 283.706 102.358C284.266 105.984 286.237 109.184 288.98 110.91C290.808 112.061 292.928 112.652 295.088 112.652C296.333 112.652 297.595 112.455 298.832 112.061C302.371 110.926 305.24 108.262 306.69 104.746C309.544 97.8259 306.722 89.408 303.246 81.3447C299.265 72.107 302.403 68.4577 304.625 67.102C306.391 66.03 308.582 65.8093 310.482 66.5187C312.271 67.1887 313.595 68.5995 314.194 70.4912C315.093 73.3051 314.107 75.7327 313.445 76.9308C312.547 78.5466 311.293 79.587 310.521 79.7762C309.055 80.1388 308.164 81.6285 308.527 83.0945C308.889 84.5606 310.387 85.4512 311.845 85.0886C314.257 84.4817 316.637 82.4324 318.222 79.5949C320.09 76.2451 320.523 72.3198 319.404 68.8281C318.293 65.3601 315.739 62.6487 312.389 61.3954C308.929 60.1028 304.964 60.489 301.772 62.428C295.506 66.2428 294.174 74.1248 298.217 83.5044C301.07 90.141 303.711 97.5974 301.622 102.658C300.779 104.707 299.195 106.197 297.161 106.851C295.325 107.434 293.401 107.229 291.888 106.283C290.509 105.416 289.421 103.556 289.113 101.538V101.53Z" fill="#F4F3E9"/>
</svg>
