<svg width="850" height="605" viewBox="0 0 850 605" fill="none" xmlns="http://www.w3.org/2000/svg">
<path d="M837.59 65C831.46 65 826.2 59.99 826.25 53.86C826.3 47.67 831.08 42.92 837.05 42.92H849.13V0H839.13V11.54C839.13 17.67 834.12 22.93 827.99 22.88C821.8 22.83 817.05 18.05 817.05 12.08V0H777.05V11.54C777.05 17.67 772.04 22.93 765.91 22.88C759.72 22.83 754.97 18.05 754.97 12.08V0H714.97V11.54C714.97 17.67 709.96 22.93 703.83 22.88C697.64 22.83 692.89 18.05 692.89 12.08V0H652.89V11.54C652.89 17.67 647.88 22.93 641.75 22.88C635.56 22.83 630.81 18.05 630.81 12.08V0H590.81V11.54C590.81 17.67 585.8 22.93 579.67 22.88C573.48 22.83 568.73 18.05 568.73 12.08V0H528.73V11.54C528.73 17.67 523.72 22.93 517.59 22.88C511.4 22.83 506.65 18.05 506.65 12.08V0H466.65V11.54C466.65 17.67 461.64 22.93 455.51 22.88C449.32 22.83 444.57 18.05 444.57 12.08V0H404.57V11.54C404.57 17.67 399.56 22.93 393.43 22.88C387.24 22.83 382.49 18.05 382.49 12.08V0H342.49V11.54C342.49 17.67 337.48 22.93 331.35 22.88C325.16 22.83 320.41 18.05 320.41 12.08V0H280.41V11.54C280.41 17.67 275.4 22.93 269.27 22.88C263.08 22.83 258.33 18.05 258.33 12.08V0H218.33V11.54C218.33 17.67 213.32 22.93 207.19 22.88C201 22.83 196.25 18.05 196.25 12.08V0H156.25V11.54C156.25 17.67 151.24 22.93 145.11 22.88C138.92 22.83 134.17 18.05 134.17 12.08V0H94.17V11.54C94.17 17.67 89.16 22.93 83.03 22.88C76.84 22.83 72.09 18.05 72.09 12.08V0H32.09V11.54C32.09 17.67 27.08 22.93 20.95 22.88C14.76 22.83 10.01 18.05 10.01 12.08V0H0V42.92H12.08C18.05 42.92 22.83 47.67 22.88 53.86C22.93 59.99 17.66 65 11.54 65H0V105H12.08C18.05 105 22.83 109.75 22.88 115.94C22.93 122.07 17.66 127.08 11.54 127.08H0V167.08H12.08C18.05 167.08 22.83 171.83 22.88 178.02C22.93 184.15 17.66 189.16 11.54 189.16H0V229.16H12.08C18.05 229.16 22.83 233.91 22.88 240.1C22.93 246.23 17.66 251.24 11.54 251.24H0V291.24H12.08C18.05 291.24 22.83 295.99 22.88 302.18C22.93 308.31 17.66 313.32 11.54 313.32H0V353.32H12.08C18.05 353.32 22.83 358.07 22.88 364.26C22.93 370.39 17.66 375.4 11.54 375.4H0V415.4H12.08C18.05 415.4 22.83 420.15 22.88 426.34C22.93 432.47 17.66 437.48 11.54 437.48H0V477.48H12.08C18.05 477.48 22.83 482.23 22.88 488.42C22.93 494.55 17.66 499.56 11.54 499.56H0V539.56H12.08C18.05 539.56 22.83 544.31 22.88 550.5C22.93 556.63 17.66 561.64 11.54 561.64H0V604.56H10V593.02C10 586.89 15.01 581.63 21.14 581.68C27.33 581.73 32.08 586.51 32.08 592.48V604.56H72.08V593.02C72.08 586.89 77.09 581.63 83.22 581.68C89.41 581.73 94.16 586.51 94.16 592.48V604.56H134.16V593.02C134.16 586.89 139.17 581.63 145.3 581.68C151.49 581.73 156.24 586.51 156.24 592.48V604.56H196.24V593.02C196.24 586.89 201.25 581.63 207.38 581.68C213.57 581.73 218.32 586.51 218.32 592.48V604.56H258.32V593.02C258.32 586.89 263.33 581.63 269.46 581.68C275.65 581.73 280.4 586.51 280.4 592.48V604.56H320.4V593.02C320.4 586.89 325.41 581.63 331.54 581.68C337.73 581.73 342.48 586.51 342.48 592.48V604.56H382.48V593.02C382.48 586.89 387.49 581.63 393.62 581.68C399.81 581.73 404.56 586.51 404.56 592.48V604.56H444.56V593.02C444.56 586.89 449.57 581.63 455.7 581.68C461.89 581.73 466.64 586.51 466.64 592.48V604.56H506.64V593.02C506.64 586.89 511.65 581.63 517.78 581.68C523.97 581.73 528.72 586.51 528.72 592.48V604.56H568.72V593.02C568.72 586.89 573.73 581.63 579.86 581.68C586.05 581.73 590.8 586.51 590.8 592.48V604.56H630.8V593.02C630.8 586.89 635.81 581.63 641.94 581.68C648.13 581.73 652.88 586.51 652.88 592.48V604.56H692.88V593.02C692.88 586.89 697.89 581.63 704.02 581.68C710.21 581.73 714.96 586.51 714.96 592.48V604.56H754.96V593.02C754.96 586.89 759.97 581.63 766.1 581.68C772.29 581.73 777.04 586.51 777.04 592.48V604.56H817.04V593.02C817.04 586.89 822.05 581.63 828.18 581.68C834.37 581.73 839.12 586.51 839.12 592.48V604.56H849.12V561.64H837.58C831.45 561.64 826.19 556.63 826.24 550.5C826.29 544.31 831.07 539.56 837.04 539.56H849.12V499.56H837.58C831.45 499.56 826.19 494.55 826.24 488.42C826.29 482.23 831.07 477.48 837.04 477.48H849.12V437.48H837.58C831.45 437.48 826.19 432.47 826.24 426.34C826.29 420.15 831.07 415.4 837.04 415.4H849.12V375.4H837.58C831.45 375.4 826.19 370.39 826.24 364.26C826.29 358.07 831.07 353.32 837.04 353.32H849.12V313.32H837.58C831.45 313.32 826.19 308.31 826.24 302.18C826.29 295.99 831.07 291.24 837.04 291.24H849.12V251.24H837.58C831.45 251.24 826.19 246.23 826.24 240.1C826.29 233.91 831.07 229.16 837.04 229.16H849.12V189.16H837.58C831.45 189.16 826.19 184.15 826.24 178.02C826.29 171.83 831.07 167.08 837.04 167.08H849.12V127.08H837.58C831.45 127.08 826.19 122.07 826.24 115.94C826.29 109.75 831.07 105 837.04 105H849.12V65H837.58H837.59Z" fill="#1E0F2D"/>
<path d="M59 40H212.84C233.96 40 251 56.8 251 77.92V150.4C251 171.52 233.72 188.56 212.84 188.56H128.43V293.43H59V40ZM155 170.8C161.24 170.8 166.04 166 166.04 160C166.04 154 161.24 148.96 155 148.96C148.76 148.96 144.2 154 144.2 160C144.2 166 149 170.8 155 170.8Z" fill="#CE8FFF"/>
<path d="M255.88 400.57V313.45H223V208.57H463V313.45H430.36V400.57H255.88Z" fill="#FFC271"/>
<path d="M271 140.8V87.76C271 61.36 292.36 40 318.76 40H415.24C441.64 40 463 61.36 463 87.76V140.8C463 167.2 441.4 188.56 415.24 188.56H318.76C292.36 188.56 271 167.2 271 140.8ZM366.53 122.8C372.53 122.8 377.57 118 377.57 112C377.57 106 372.53 100.96 366.53 100.96C360.53 100.96 355.73 106 355.73 112C355.73 118 360.53 122.8 366.53 122.8Z" fill="#FF5C7F"/>
<path d="M273 420.57H413C440.61 420.57 463 442.96 463 470.57V564.57H355.04V542.49C355.04 536.52 350.29 531.74 344.1 531.69C337.91 531.64 332.96 536.91 332.96 543.03V564.57H223V470.57C223 442.96 245.39 420.57 273 420.57ZM344.01 483.93C350.01 483.93 354.81 478.89 354.81 472.89C354.81 466.89 350.01 462.09 344.01 462.09C338.01 462.09 332.97 466.89 332.97 472.89C332.97 478.89 338.01 483.93 344.01 483.93Z" fill="#F4F3E9"/>
<path d="M606.77 542.49V564.57H483.01V464.01H626.21V472.89C626.21 478.89 631.01 483.93 637.01 483.93C643.01 483.93 647.81 478.89 647.81 472.89V464.01H791.01V564.57H667.25V542.49C667.25 536.49 662.69 531.69 656.45 531.69C650.21 531.69 645.65 536.49 645.65 542.49V564.57H628.37V542.49C628.37 536.49 623.57 531.69 617.57 531.69C611.57 531.69 606.77 536.49 606.77 542.49Z" fill="#F4F3E9"/>
<path d="M483.01 188.56H505.09C511.09 188.56 516.13 183.76 516.13 177.76C516.13 171.76 511.09 166.96 505.09 166.96H483.01V79.36C483.01 57.52 500.77 40 522.37 40H627.01V129.52H618.37C612.37 129.52 607.57 134.32 607.57 140.32C607.57 146.32 612.37 151.12 618.37 151.12H627.01V240.88C627.01 262.48 609.25 280 587.65 280H483.01V188.56Z" fill="#62D3ED"/>
<path d="M483.01 300.01H627.01V354.73H605.65L627.01 375.85V387.37H605.65L627.01 408.73V444.01H483.01V300.01Z" fill="#8ADB90"/>
<path d="M647.01 205.73H753.81C774.21 205.73 791.01 222.05 791.01 242.45V314.69H768.93C762.93 314.69 758.13 319.73 758.13 325.73C758.13 331.73 762.93 336.77 768.93 336.77H791.01V445.73H730.05V436.85C730.05 430.85 725.25 426.05 719.01 426.05C712.77 426.05 707.97 430.85 707.97 436.85V445.73H647.01V205.72V205.73ZM719.01 317.09C725.25 317.09 730.05 312.05 730.05 306.05C730.05 300.05 725.25 295.25 719.01 295.25C712.77 295.25 708.21 300.05 708.21 306.05C708.21 312.05 713.01 317.09 719.01 317.09Z" fill="#FC90D1"/>
<path d="M59 313.45V418.33H148.28V444.57C148.28 450.81 143.24 455.61 137.24 455.61C131.24 455.61 126.2 450.81 126.2 444.57V435.93H59V516.57C59 543.21 80.12 564.57 106.76 564.57H155.24C181.64 564.57 203 543.21 203 516.57V313.45H59Z" fill="#F4F3E9"/>
</svg>
